<svg xmlns="http://www.w3.org/2000/svg">
  <symbol id="book" viewBox="0 0 24 24" fill="none">
    <path
      stroke="currentColor"
      stroke-linecap="round"
      stroke-linejoin="round"
      stroke-width="1.5"
      d="M19.25 5.75C19.25 5.19772 18.8023 4.75 18.25 4.75H14C12.8954 4.75 12 5.64543 12 6.75V19.25L12.8284 18.4216C13.5786 17.6714 14.596 17.25 15.6569 17.25H18.25C18.8023 17.25 19.25 16.8023 19.25 16.25V5.75Z"
    ></path>
    <path
      stroke="currentColor"
      stroke-linecap="round"
      stroke-linejoin="round"
      stroke-width="1.5"
      d="M4.75 5.75C4.75 5.19772 5.19772 4.75 5.75 4.75H10C11.1046 4.75 12 5.64543 12 6.75V19.25L11.1716 18.4216C10.4214 17.6714 9.40401 17.25 8.34315 17.25H5.75C5.19772 17.25 4.75 16.8023 4.75 16.25V5.75Z"
    ></path>
  </symbol>

  <symbol id="box" viewBox="0 0 24 24" fill="none">
    <path stroke="currentColor" stroke-linecap="round" stroke-linejoin="round" stroke-width="1.5" d="M4.75 8L12 4.75L19.25 8L12 11.25L4.75 8Z"></path>
    <path stroke="currentColor" stroke-linecap="round" stroke-linejoin="round" stroke-width="1.5" d="M4.75 16L12 19.25L19.25 16"></path>
    <path stroke="currentColor" stroke-linecap="round" stroke-linejoin="round" stroke-width="1.5" d="M19.25 8V16"></path>
    <path stroke="currentColor" stroke-linecap="round" stroke-linejoin="round" stroke-width="1.5" d="M4.75 8V16"></path>
    <path stroke="currentColor" stroke-linecap="round" stroke-linejoin="round" stroke-width="1.5" d="M12 11.5V19"></path>
  </symbol>

  <symbol id="plug" fill="none" viewBox="0 0 24 24">
    <path stroke="currentColor" stroke-linecap="round" stroke-linejoin="round" stroke-width="1.5" d="M18.2813 12.0313L11.9687 5.7187C11.4896 5.23964 10.6829 5.36557 10.3726 5.96785L6.75 13L11 17.25L18.0321 13.6274C18.6344 13.3171 18.7604 12.5104 18.2813 12.0313Z"></path>
    <path stroke="currentColor" stroke-linecap="round" stroke-linejoin="round" stroke-width="1.5" d="M4.75 19.25L8.5 15.5"></path>
    <path stroke="currentColor" stroke-linecap="round" stroke-linejoin="round" stroke-width="1.5" d="M13.75 7.25L16.25 4.75"></path>
    <path stroke="currentColor" stroke-linecap="round" stroke-linejoin="round" stroke-width="1.5" d="M16.75 10.25L19.25 7.75"></path>
  </symbol>

  <symbol id="mouse" viewBox="0 0 24 24" fill="none">
    <path d="M9 11.25V7.75C9 6.09315 10.3431 4.75 12 4.75H13.75C15.4069 4.75 16.75 6.09315 16.75 7.75V17.25C16.75 18.3546 17.6454 19.25 18.75 19.25H19.25" stroke="currentColor" stroke-width="1.5" stroke-linecap="round" stroke-linejoin="round"></path>
    <path d="M4.75 10.75C4.75 9.09315 6.09315 7.75 7.75 7.75H10.25C11.9069 7.75 13.25 9.09315 13.25 10.75V16.25C13.25 17.9069 11.9069 19.25 10.25 19.25H7.75C6.09315 19.25 4.75 17.9069 4.75 16.25V10.75Z" stroke="currentColor" stroke-width="1.5" stroke-linecap="round" stroke-linejoin="round"></path>
  </symbol>

  <symbol id="refresh" fill="none" viewBox="0 0 24 24">
    <path stroke="currentColor" stroke-linecap="round" stroke-linejoin="round" stroke-width="1.5" d="M11.25 4.75L8.75 7L11.25 9.25"></path>
    <path stroke="currentColor" stroke-linecap="round" stroke-linejoin="round" stroke-width="1.5" d="M12.75 19.25L15.25 17L12.75 14.75"></path>
    <path stroke="currentColor" stroke-linecap="round" stroke-linejoin="round" stroke-width="1.5" d="M9.75 7H13.25C16.5637 7 19.25 9.68629 19.25 13V13.25"></path>
    <path stroke="currentColor" stroke-linecap="round" stroke-linejoin="round" stroke-width="1.5" d="M14.25 17H10.75C7.43629 17 4.75 14.3137 4.75 11V10.75"></path>
  </symbol>

  <symbol id="union" viewBox="0 0 24 24" fill="none">
    <path d="M12.25 4.75H6.75C5.64543 4.75 4.75 5.64543 4.75 6.75V12.25C4.75 13.3546 5.64543 14.25 6.75 14.25H9.75V17.25C9.75 18.3546 10.6454 19.25 11.75 19.25H17.25C18.3546 19.25 19.25 18.3546 19.25 17.25V11.75C19.25 10.6454 18.3546 9.75 17.25 9.75H14.25V6.75C14.25 5.64543 13.3546 4.75 12.25 4.75Z" stroke="currentColor" stroke-width="1.5" stroke-linecap="round" stroke-linejoin="round"></path>
  </symbol>

  <symbol id="plus-circle" fill="none" viewBox="0 0 24 24">
    <path stroke="currentColor" stroke-linecap="round" stroke-linejoin="round" stroke-width="1.5" d="M4.75 12C4.75 7.99594 7.99594 4.75 12 4.75V4.75C16.0041 4.75 19.25 7.99594 19.25 12V12C19.25 16.0041 16.0041 19.25 12 19.25V19.25C7.99594 19.25 4.75 16.0041 4.75 12V12Z"></path>
    <path stroke="currentColor" stroke-linecap="round" stroke-linejoin="round" stroke-width="1.5" d="M12 8.75003V15.25"></path>
    <path stroke="currentColor" stroke-linecap="round" stroke-linejoin="round" stroke-width="1.5" d="M15.25 12L8.75 12"></path>
  </symbol>

  <symbol id="globe" fill="none" viewBox="0 0 24 24">
    <circle cx="12" cy="12" r="7.25" stroke="currentColor" stroke-linecap="round" stroke-linejoin="round" stroke-width="1.5"></circle>
    <path stroke="currentColor" stroke-linecap="round" stroke-linejoin="round" stroke-width="1.5" d="M15.25 12C15.25 16.5 13.2426 19.25 12 19.25C10.7574 19.25 8.75 16.5 8.75 12C8.75 7.5 10.7574 4.75 12 4.75C13.2426 4.75 15.25 7.5 15.25 12Z"></path>
    <path stroke="currentColor" stroke-linecap="round" stroke-linejoin="round" stroke-width="1.5" d="M5 12H12H19"></path>
  </symbol>

</svg>